<?xml version="1.0" encoding="UTF-8"?>
<!--! Font Awesome Free 7.0.0 by @fontawesome
License - https://fontawesome.com/license/free (Icons: CC BY 4.0)
Copyright 2025 Fonticons, Inc. -->
<svg viewBox = "0 0 1024 384" xmlns="http://www.w3.org/2000/svg" xmlns:xlink="http://www.w3.org/1999/xlink">
<symbol id="fa-play" viewBox="0 0 640 640">
<path d="M187.2 100.9C174.8 94.1 159.8 94.4 147.6 101.6C135.4 108.8 128 121.9 128 136L128 504C128 518.1 135.5 531.2 147.6 538.4C159.7 545.6 174.8 545.9 187.2 539.1L523.2 355.1C536 348.1 544 334.6 544 320C544 305.4 536 291.9 523.2 284.9L187.2 100.9z"/>
</symbol>
<symbol id="fa-pause" viewBox="0 0 640 640">
<path d="M176 96C149.5 96 128 117.5 128 144L128 496C128 522.5 149.5 544 176 544L240 544C266.5 544 288 522.5 288 496L288 144C288 117.5 266.5 96 240 96L176 96zM400 96C373.5 96 352 117.5 352 144L352 496C352 522.5 373.5 544 400 544L464 544C490.5 544 512 522.5 512 496L512 144C512 117.5 490.5 96 464 96L400 96z"/>
</symbol>
<symbol id="fa-gear" viewBox="0 0 640 640">
<path d="M259.1 73.5C262.1 58.7 275.2 48 290.4 48L350.2 48C365.4 48 378.5 58.7 381.5 73.5L396 143.5C410.1 149.5 423.3 157.2 435.3 166.3L503.1 143.8C517.5 139 533.3 145 540.9 158.2L570.8 210C578.4 223.2 575.7 239.8 564.3 249.9L511 297.3C511.9 304.7 512.3 312.3 512.3 320C512.3 327.7 511.8 335.3 511 342.7L564.4 390.2C575.8 400.3 578.4 417 570.9 430.1L541 481.9C533.4 495 517.6 501.1 503.2 496.3L435.4 473.8C423.3 482.9 410.1 490.5 396.1 496.6L381.7 566.5C378.6 581.4 365.5 592 350.4 592L290.6 592C275.4 592 262.3 581.3 259.3 566.5L244.9 496.6C230.8 490.6 217.7 482.9 205.6 473.8L137.5 496.3C123.1 501.1 107.3 495.1 99.7 481.9L69.8 430.1C62.2 416.9 64.9 400.3 76.3 390.2L129.7 342.7C128.8 335.3 128.4 327.7 128.4 320C128.4 312.3 128.9 304.7 129.7 297.3L76.3 249.8C64.9 239.7 62.3 223 69.8 209.9L99.7 158.1C107.3 144.9 123.1 138.9 137.5 143.7L205.3 166.2C217.4 157.1 230.6 149.5 244.6 143.4L259.1 73.5zM320.3 400C364.5 399.8 400.2 363.9 400 319.7C399.8 275.5 363.9 239.8 319.7 240C275.5 240.2 239.8 276.1 240 320.3C240.2 364.5 276.1 400.2 320.3 400z"/>
</symbol>
<symbol id="fa-volume-high" viewBox="0 0 640 640">
<path d="M533.6 96.5C523.3 88.1 508.2 89.7 499.8 100C491.4 110.3 493 125.4 503.3 133.8C557.5 177.8 592 244.8 592 320C592 395.2 557.5 462.2 503.3 506.3C493 514.7 491.5 529.8 499.8 540.1C508.1 550.4 523.3 551.9 533.6 543.6C598.5 490.7 640 410.2 640 320C640 229.8 598.5 149.2 533.6 96.5zM473.1 171C462.8 162.6 447.7 164.2 439.3 174.5C430.9 184.8 432.5 199.9 442.8 208.3C475.3 234.7 496 274.9 496 320C496 365.1 475.3 405.3 442.8 431.8C432.5 440.2 431 455.3 439.3 465.6C447.6 475.9 462.8 477.4 473.1 469.1C516.3 433.9 544 380.2 544 320.1C544 260 516.3 206.3 473.1 171.1zM412.6 245.5C402.3 237.1 387.2 238.7 378.8 249C370.4 259.3 372 274.4 382.3 282.8C393.1 291.6 400 305 400 320C400 335 393.1 348.4 382.3 357.3C372 365.7 370.5 380.8 378.8 391.1C387.1 401.4 402.3 402.9 412.6 394.6C434.1 376.9 448 350.1 448 320C448 289.9 434.1 263.1 412.6 245.5zM80 416L128 416L262.1 535.2C268.5 540.9 276.7 544 285.2 544C304.4 544 320 528.4 320 509.2L320 130.8C320 111.6 304.4 96 285.2 96C276.7 96 268.5 99.1 262.1 104.8L128 224L80 224C53.5 224 32 245.5 32 272L32 368C32 394.5 53.5 416 80 416z"/>
</symbol>
<symbol id="fa-language" viewBox="0 0 640 640">
<path d="M192 64C209.7 64 224 78.3 224 96L224 128L352 128C369.7 128 384 142.3 384 160C384 177.7 369.7 192 352 192L342.4 192L334 215.1C317.6 260.3 292.9 301.6 261.8 337.1C276 345.9 290.8 353.7 306.2 360.6L356.6 383L418.8 243C423.9 231.4 435.4 224 448 224C460.6 224 472.1 231.4 477.2 243L605.2 531C612.4 547.2 605.1 566.1 589 573.2C572.9 580.3 553.9 573.1 546.8 557L526.8 512L369.3 512L349.3 557C342.1 573.2 323.2 580.4 307.1 573.2C291 566 283.7 547.1 290.9 531L330.7 441.5L280.3 419.1C257.3 408.9 235.3 396.7 214.5 382.7C193.2 399.9 169.9 414.9 145 427.4L110.3 444.6C94.5 452.5 75.3 446.1 67.4 430.3C59.5 414.5 65.9 395.3 81.7 387.4L116.2 370.1C132.5 361.9 148 352.4 162.6 341.8C148.8 329.1 135.8 315.4 123.7 300.9L113.6 288.7C102.3 275.1 104.1 254.9 117.7 243.6C131.3 232.3 151.5 234.1 162.8 247.7L173 259.9C184.5 273.8 197.1 286.7 210.4 298.6C237.9 268.2 259.6 232.5 273.9 193.2L274.4 192L64.1 192C46.3 192 32 177.7 32 160C32 142.3 46.3 128 64 128L160 128L160 96C160 78.3 174.3 64 192 64zM448 334.8L397.7 448L498.3 448L448 334.8z"/>
</symbol>
<symbol id="fa-file-circle-plus" viewBox="0 0 640 640">
<path d="M128 64C92.7 64 64 92.7 64 128L64 512C64 547.3 92.7 576 128 576L308 576C285.3 544.5 272 505.8 272 464C272 363.4 349.4 280.8 448 272.7L448 234.6C448 217.6 441.3 201.3 429.3 189.3L322.7 82.7C310.7 70.7 294.5 64 277.5 64L128 64zM389.5 240L296 240C282.7 240 272 229.3 272 216L272 122.5L389.5 240zM464 608C543.5 608 608 543.5 608 464C608 384.5 543.5 320 464 320C384.5 320 320 384.5 320 464C320 543.5 384.5 608 464 608zM480 400L480 448L528 448C536.8 448 544 455.2 544 464C544 472.8 536.8 480 528 480L480 480L480 528C480 536.8 472.8 544 464 544C455.2 544 448 536.8 448 528L448 480L400 480C391.2 480 384 472.8 384 464C384 455.2 391.2 448 400 448L448 448L448 400C448 391.2 455.2 384 464 384C472.8 384 480 391.2 480 400z"/>
</symbol>
<symbol id="fa-question" viewBox="0 0 640 640">
<path d="M224 224C224 171 267 128 320 128C373 128 416 171 416 224C416 266.7 388.1 302.9 349.5 315.4C321.1 324.6 288 350.7 288 392L288 416C288 433.7 302.3 448 320 448C337.7 448 352 433.7 352 416L352 392C352 390.3 352.6 387.9 355.5 384.7C358.5 381.4 363.4 378.2 369.2 376.3C433.5 355.6 480 295.3 480 224C480 135.6 408.4 64 320 64C231.6 64 160 135.6 160 224C160 241.7 174.3 256 192 256C209.7 256 224 241.7 224 224zM320 576C342.1 576 360 558.1 360 536C360 513.9 342.1 496 320 496C297.9 496 280 513.9 280 536C280 558.1 297.9 576 320 576z"/>
</symbol>
<symbol id="fa-step-forward" viewBox="0 0 640 640">
<path d="M149 100.8C161.9 93.8 177.7 94.5 190 102.6L448 272.1L448 128C448 110.3 462.3 96 480 96C497.7 96 512 110.3 512 128L512 512C512 529.7 497.7 544 480 544C462.3 544 448 529.7 448 512L448 367.9L190 537.5C177.7 545.6 162 546.3 149 539.3C136 532.3 128 518.7 128 504L128 136C128 121.3 136.1 107.8 149 100.8z"/>
</symbol>
<symbol id="fa-step-backward" viewBox="0 0 640 640">
<path d="M491 100.8C478.1 93.8 462.3 94.5 450 102.6L192 272.1L192 128C192 110.3 177.7 96 160 96C142.3 96 128 110.3 128 128L128 512C128 529.7 142.3 544 160 544C177.7 544 192 529.7 192 512L192 367.9L450 537.5C462.3 545.6 478 546.3 491 539.3C504 532.3 512 518.8 512 504.1L512 136.1C512 121.4 503.9 107.9 491 100.9z"/>
</symbol>
<symbol id="fa-upload" viewBox="0 0 640 640">
<path d="M352 173.3L352 384C352 401.7 337.7 416 320 416C302.3 416 288 401.7 288 384L288 173.3L246.6 214.7C234.1 227.2 213.8 227.2 201.3 214.7C188.8 202.2 188.8 181.9 201.3 169.4L297.3 73.4C309.8 60.9 330.1 60.9 342.6 73.4L438.6 169.4C451.1 181.9 451.1 202.2 438.6 214.7C426.1 227.2 405.8 227.2 393.3 214.7L352 173.3zM320 464C364.2 464 400 428.2 400 384L480 384C515.3 384 544 412.7 544 448L544 480C544 515.3 515.3 544 480 544L160 544C124.7 544 96 515.3 96 480L96 448C96 412.7 124.7 384 160 384L240 384C240 428.2 275.8 464 320 464zM464 488C477.3 488 488 477.3 488 464C488 450.7 477.3 440 464 440C450.7 440 440 450.7 440 464C440 477.3 450.7 488 464 488z"/>
</symbol>
<symbol id="fa-file-upload" viewBox="0 0 640 640">
<path d="M128 128C128 92.7 156.7 64 192 64L341.5 64C358.5 64 374.8 70.7 386.8 82.7L493.3 189.3C505.3 201.3 512 217.6 512 234.6L512 512C512 547.3 483.3 576 448 576L192 576C156.7 576 128 547.3 128 512L128 128zM336 122.5L336 216C336 229.3 346.7 240 360 240L453.5 240L336 122.5zM337 327C327.6 317.6 312.4 317.6 303.1 327L239.1 391C229.7 400.4 229.7 415.6 239.1 424.9C248.5 434.2 263.7 434.3 273 424.9L296 401.9L296 488C296 501.3 306.7 512 320 512C333.3 512 344 501.3 344 488L344 401.9L367 424.9C376.4 434.3 391.6 434.3 400.9 424.9C410.2 415.5 410.3 400.3 400.9 391L336.9 327z"/>
</symbol>
<symbol id="fa-edit" viewBox="0 0 640 640">
<path d="M535.6 85.7C513.7 63.8 478.3 63.8 456.4 85.7L432 110.1L529.9 208L554.3 183.6C576.2 161.7 576.2 126.3 554.3 104.4L535.6 85.7zM236.4 305.7C230.3 311.8 225.6 319.3 222.9 327.6L193.3 416.4C190.4 425 192.7 434.5 199.1 441C205.5 447.5 215 449.7 223.7 446.8L312.5 417.2C320.7 414.5 328.2 409.8 334.4 403.7L496 241.9L398.1 144L236.4 305.7zM160 128C107 128 64 171 64 224L64 480C64 533 107 576 160 576L416 576C469 576 512 533 512 480L512 384C512 366.3 497.7 352 480 352C462.3 352 448 366.3 448 384L448 480C448 497.7 433.7 512 416 512L160 512C142.3 512 128 497.7 128 480L128 224C128 206.3 142.3 192 160 192L256 192C273.7 192 288 177.7 288 160C288 142.3 273.7 128 256 128L160 128z"/>
</symbol>
<use xlink:href="#fa-play" x="0" y="0" width="128" height="128"/>
<use xlink:href="#fa-pause" x="128" y="0" width="128" height="128"/>
<use xlink:href="#fa-step-forward" x="256" y="0" width="128" height="128"/>
<use xlink:href="#fa-step-backward" x="384" y="0" width="128" height="128"/>
<use xlink:href="#fa-volume-high" x="512" y="0" width="128" height="128"/>
<use xlink:href="#fa-language" x="640" y="0" width="128" height="128"/>
<use xlink:href="#fa-question" x="768" y="0" width="128" height="128"/>
<use xlink:href="#fa-gear" x="896" y="0" width="128" height="128"/>

<use xlink:href="#fa-file-circle-plus" x="0" y="128" width="128" height="128"/>
<use xlink:href="#fa-upload" x="128" y="128" width="128" height="128"/>
<use xlink:href="#fa-file-upload" x="256" y="128" width="128" height="128"/>
<use xlink:href="#fa-edit" x="384" y="128" width="128" height="128"/>
</svg>
